# xmcd CD database file
#
# Track frame offsets:
#	150
#	21675
#	24937
#	38362
#	43012
#	61687
#	75637
#	92287
#	97087
#	113587
#	134887
#	154237
#
# Disc length: 2411 seconds
#
# Revision: 1
# Processed by: cddbd v1.5.2PL0 Copyright (c) Steve Scherf et al.
# Submitted via: CDex 1.70beta3
#
DISCID=8f09690c
DTITLE=takrockers!! virtual band - r.i.p. Roses in Promenade -tribute to Asellus
DYEAR=2006
DGENRE=Jazz
TTITLE0=愛はどこにありますか -prologue, plz tell me where love is-
TTITLE1=急に馬車が来たから -promenade I  QBK-
TTITLE2=高嶺の花 -Gina, march of the princess-
TTITLE3=サボタージュと横恋慕 -promenade II  bye my sweet.-
TTITLE4=うみをすませば -Mesarthim, a blue avanture-
TTITLE5=恋に落ちたが運の尽き -kinjishi, misery-
TTITLE6=薔薇は美しく云々 -shirobara, honey bee-
TTITLE7=恨みジェンヌ -promenade III  be back-
TTITLE8=今夜、殺します -Asellus, one night stinger-
TTITLE9=ハリノムシロ -Orlouge, waiting for you-
TTITLE10=清算 -r.i.p.-
TTITLE11=そうこうしているうちに朝も来るわけで -epilogue, the purple dawn-
EXTD=YEAR: 2006
EXTT0=
EXTT1=
EXTT2=
EXTT3=
EXTT4=
EXTT5=
EXTT6=
EXTT7=
EXTT8=
EXTT9=
EXTT10=
EXTT11=
PLAYORDER=
